<svg width="32" height="32" viewBox="0 0 32 32" fill="none" xmlns="http://www.w3.org/2000/svg">
<path fill-rule="evenodd" clip-rule="evenodd" d="M29.3341 20.2001C29.3794 21.6204 29.1948 23.0387 28.7874 24.4001C28.0071 26.8133 25.9533 28.595 23.4541 29.0268C21.8742 29.3012 20.2694 29.4041 18.6674 29.3334C16.3608 29.3334 14.0674 29.3334 11.7741 29.3334C10.3537 29.3796 8.93529 29.195 7.57408 28.7868C5.15741 28.008 3.37098 25.9546 2.93408 23.4534C2.72212 22.2388 2.63278 21.0059 2.66742 19.7734C2.66742 17.1068 2.66742 14.4401 2.66742 11.7734C2.62624 10.3602 2.81999 8.94988 3.24075 7.60009C4.01322 5.18171 6.07087 3.3967 8.57408 2.97342C10.1468 2.71444 11.7412 2.61171 13.3341 2.66675C14.2274 2.66675 15.1208 2.66675 16.0008 2.66675C17.8141 2.66675 19.6408 2.66675 21.4541 2.66675C23.1452 2.68427 24.7945 3.19391 26.2008 4.13342C27.7841 5.25568 28.8316 6.98385 29.0941 8.90675C29.2901 10.3737 29.3704 11.8539 29.3341 13.3334C29.3341 15.5868 29.3341 17.8934 29.3341 20.2001ZM26.6674 9.22675C26.4195 7.2851 24.96 5.71829 23.0407 5.33342C21.8314 5.11394 20.6027 5.0201 19.3741 5.05342C17.1341 5.05342 14.8808 5.05342 12.6274 5.05342C11.488 5.04645 10.3503 5.14015 9.22742 5.33342C7.43568 5.55701 5.9533 6.83438 5.46742 8.57342C5.18321 9.69238 5.06196 10.8465 5.10742 12.0001C5.10742 13.8134 5.10742 15.6268 5.10742 17.4401C5.06946 19.0912 5.1318 20.7432 5.29408 22.3868C5.38616 24.4824 6.89217 26.2468 8.94742 26.6668C10.1653 26.889 11.4036 26.9784 12.6408 26.9334C14.8807 26.9334 17.103 26.9334 19.3074 26.9334C20.4642 26.9476 21.6199 26.8584 22.7607 26.6668C24.2439 26.4729 25.536 25.56 26.2141 24.2268C26.6148 23.3469 26.8282 22.3934 26.8408 21.4268C26.9474 19.6134 26.9341 17.7868 26.9207 15.9734C26.9207 14.8534 26.9207 13.7334 26.9207 12.6134C26.9153 11.48 26.8306 10.3484 26.6674 9.22675ZM16.0008 22.8401C13.2216 22.8399 10.7177 21.1613 9.6618 18.5906C8.6059 16.0198 9.20705 13.0659 11.1837 11.1123C13.1604 9.15876 16.1211 8.59233 18.6793 9.67835C21.2375 10.7644 22.8865 13.2878 22.8541 16.0668C22.8247 19.8266 19.7607 22.8549 16.0008 22.8401ZM23.1208 10.4934C22.2328 10.4862 21.5147 9.76809 21.5074 8.88009C21.5147 7.99428 22.2349 7.28006 23.1208 7.28009C23.5485 7.27252 23.9606 7.44096 24.2606 7.74599C24.5606 8.05101 24.7221 8.46585 24.7074 8.89342C24.7074 9.77189 23.9992 10.4861 23.1208 10.4934V10.4934ZM16.0008 11.5601C13.5486 11.5601 11.5608 13.5479 11.5608 16.0001C11.5608 18.4522 13.5486 20.4401 16.0008 20.4401C18.4529 20.4401 20.4408 18.4522 20.4408 16.0001C20.4334 13.551 18.4499 11.5674 16.0008 11.5601V11.5601Z" fill="black"/>
</svg>
