<svg width="28" height="32" viewBox="0 0 28 32" fill="none" xmlns="http://www.w3.org/2000/svg">
<path fill-rule="evenodd" clip-rule="evenodd" d="M9.89122 0C8.49253 0 7.32622 1.06986 7.2058 2.46336L6.75576 7.67092L2.68493 7.67092C1.20208 7.67092 0 8.873 0 10.3559C0 11.8387 1.20208 13.0408 2.68493 13.0408H6.2917L5.82756 18.4115H2.68493C1.20208 18.4115 0 19.6136 0 21.0965C0 22.5793 1.20208 23.7814 2.68493 23.7814H5.3635L4.98674 28.141C4.85069 29.7153 6.09195 31.0685 7.67217 31.0685C9.07086 31.0685 10.2372 29.9986 10.3576 28.6051L10.7745 23.7814L15.9729 23.7814L15.5961 28.141C15.4601 29.7153 16.7013 31.0685 18.2815 31.0685C19.6802 31.0685 20.8465 29.9986 20.967 28.6051L21.3838 23.7814H25.3151C26.7979 23.7814 28 22.5793 28 21.0965C28 19.6136 26.7979 18.4115 25.3151 18.4115H21.8479L22.312 13.0408H25.3151C26.7979 13.0408 28 11.8387 28 10.3558C28 8.873 26.7979 7.67092 25.3151 7.67092H22.7761L23.186 2.92751C23.3221 1.35315 22.0808 0 20.5006 0C19.1019 0 17.9356 1.06986 17.8152 2.46336L17.3651 7.67092L12.1667 7.67092L12.5766 2.92751C12.7127 1.35315 11.4714 0 9.89122 0ZM11.7027 13.0408L11.2385 18.4115L16.4369 18.4115L16.9011 13.0408L11.7027 13.0408Z" fill="#3C3C3C"/>
</svg>
