<svg width="32" height="32" viewBox="0 0 32 32" fill="none" xmlns="http://www.w3.org/2000/svg">
<path fill-rule="evenodd" clip-rule="evenodd" d="M11.0665 26.8001C21.0665 26.8001 26.6665 18.4001 26.6665 11.2001C26.6665 10.9334 26.6665 10.6667 26.6665 10.5334C27.7332 9.7334 28.6665 8.80006 29.3332 7.7334C28.3999 8.1334 27.3332 8.40006 26.1332 8.5334C27.3332 7.86673 28.1332 6.80006 28.5332 5.46673C27.4665 6.1334 26.2665 6.5334 25.0665 6.80006C23.0665 4.66673 19.5999 4.5334 17.3332 6.66673C15.8665 8.00006 15.3332 10.0001 15.7332 11.8667C11.3332 11.6001 7.3332 9.60006 4.5332 6.1334C3.06654 8.66673 3.86654 11.8667 6.26654 13.4667C5.3332 13.4667 4.5332 13.2001 3.7332 12.8001C3.7332 12.8001 3.7332 12.8001 3.7332 12.9334C3.7332 15.6001 5.59987 17.7334 8.1332 18.2667C7.3332 18.5334 6.5332 18.5334 5.59987 18.4001C6.26654 20.6667 8.39987 22.1334 10.6665 22.1334C8.66654 23.6001 6.39987 24.5334 3.86654 24.5334C3.46654 24.5334 2.9332 24.5334 2.5332 24.4001C5.19987 26.0001 8.1332 26.8001 11.0665 26.8001" fill="black"/>
</svg>
