<svg width="24" height="24" viewBox="0 0 24 24" fill="none" xmlns="http://www.w3.org/2000/svg">
<path fill-rule="evenodd" clip-rule="evenodd" d="M15.5 14.1998C16.4 12.9998 16.9 11.4998 16.9 9.99976C16.9 8.09976 16.2 6.39976 14.9 5.09976C13.6 3.79976 11.8 3.09976 10 3.09976C8.1 2.99976 6.4 3.69976 5 4.99976C3.7 6.39976 3 8.09976 3 9.99976C3 11.8998 3.7 13.5998 5 14.8998C6.3 16.1998 8.1 16.8998 9.9 16.8998C11.4 16.8998 12.8 16.3998 14 15.4998L19.9 21.4998L21.3 20.0998L15.5 14.1998ZM13.5 13.3998V13.3998C12.5 14.3998 11.2 14.8998 9.9 14.8998C8.6 14.8998 7.3 14.3998 6.4 13.3998C5.5 12.4998 5 11.2998 5 9.99976C5 8.69976 5.5 7.39976 6.5 6.49976C7.5 5.59976 8.6 4.99976 10 4.99976C11.3 4.99976 12.6 5.49976 13.5 6.49976C14.4 7.39976 15 8.69976 15 9.99976C14.9 11.2998 14.4 12.4998 13.5 13.3998Z" fill="white"/>
</svg>
