<svg width="16" height="16" viewBox="0 0 16 16" fill="none" xmlns="http://www.w3.org/2000/svg">
<path fill-rule="evenodd" clip-rule="evenodd" d="M7.31378 0.787109L1.47378 1.47378L0.787109 7.30711L8.93378 15.4538L15.4604 8.92711L7.31378 0.787109ZM2.17378 6.83378L2.66711 2.66711L6.83378 2.17378L13.5938 8.93378L8.93378 13.5938L2.17378 6.83378ZM7.53378 4.74044C6.76044 3.96711 5.50711 3.96711 4.74044 4.74044C3.96711 5.51378 3.96711 6.76711 4.74044 7.53378C5.12711 7.92044 5.63378 8.11378 6.14044 8.11378C6.64711 8.11378 7.15378 7.92044 7.54044 7.53378C8.30711 6.76711 8.30711 5.51378 7.53378 4.74044V4.74044ZM6.60711 6.60711C6.35378 6.86711 5.93378 6.86711 5.67378 6.60711C5.41378 6.34711 5.41378 5.93378 5.67378 5.67378C5.80044 5.54711 5.97378 5.48044 6.14044 5.48044C6.30711 5.48044 6.48044 5.54711 6.60711 5.67378C6.86044 5.92711 6.86044 6.34711 6.60711 6.60711Z" fill="#555"/>
</svg>
