<svg width="24" height="24" viewBox="0 0 24 24" fill="none" xmlns="http://www.w3.org/2000/svg">
<rect opacity="0.01" width="24" height="24" fill="#F3F3F3"/>
<path fill-rule="evenodd" clip-rule="evenodd" d="M12.7274 12.17L9.28999 8.70419C8.90108 8.31206 8.90368 7.6789 9.29581 7.28999C9.68794 6.90108 10.3211 6.90368 10.71 7.29581L14.8458 11.4658C15.2325 11.8556 15.2325 12.4843 14.8458 12.8742L10.7122 17.042C10.3233 17.4341 9.69011 17.4367 9.29798 17.0478C8.90585 16.6589 8.90325 16.0257 9.29216 15.6336L12.7274 12.17Z" fill="#8C8C8C"/>
<mask id="mask0" mask-type="alpha" maskUnits="userSpaceOnUse" x="9" y="7" width="7" height="11">
<path fill-rule="evenodd" clip-rule="evenodd" d="M12.7274 12.17L9.28999 8.70419C8.90108 8.31206 8.90368 7.6789 9.29581 7.28999C9.68794 6.90108 10.3211 6.90368 10.71 7.29581L14.8458 11.4658C15.2325 11.8556 15.2325 12.4843 14.8458 12.8742L10.7122 17.042C10.3233 17.4341 9.69011 17.4367 9.29798 17.0478C8.90585 16.6589 8.90325 16.0257 9.29216 15.6336L12.7274 12.17Z" fill="white"/>
</mask>
<g mask="url(#mask0)">
</g>
</svg>
