<svg width="24" height="24" viewBox="0 0 24 24" fill="none" xmlns="http://www.w3.org/2000/svg">
<rect opacity="0.01" x="24" y="24" width="24" height="24" transform="rotate(180 24 24)" fill="#F3F3F3"/>
<path fill-rule="evenodd" clip-rule="evenodd" d="M11.2726 11.83L14.71 15.2958C15.0989 15.6879 15.0963 16.3211 14.7042 16.71C14.3121 17.0989 13.6789 17.0963 13.29 16.7042L9.15419 12.5342C8.76754 12.1444 8.76754 11.5157 9.15419 11.1258L13.2878 6.95805C13.6767 6.56592 14.3099 6.56332 14.702 6.95223C15.0941 7.34114 15.0968 7.9743 14.7078 8.36643L11.2726 11.83Z" fill="#8C8C8C"/>
<mask id="mask0" mask-type="alpha" maskUnits="userSpaceOnUse" x="8" y="6" width="7" height="11">
<path fill-rule="evenodd" clip-rule="evenodd" d="M11.2726 11.83L14.71 15.2958C15.0989 15.6879 15.0963 16.3211 14.7042 16.71C14.3121 17.0989 13.6789 17.0963 13.29 16.7042L9.15419 12.5342C8.76754 12.1444 8.76754 11.5157 9.15419 11.1258L13.2878 6.95805C13.6767 6.56592 14.3099 6.56332 14.702 6.95223C15.0941 7.34114 15.0968 7.9743 14.7078 8.36643L11.2726 11.83Z" fill="white"/>
</mask>
<g mask="url(#mask0)">
</g>
</svg>
