<svg width="28" height="21" viewBox="0 0 28 21" fill="none" xmlns="http://www.w3.org/2000/svg">
<path d="M27.7651 18.3865C27.7651 19.437 26.9524 20.3084 25.9045 20.3817L18.9511 20.8674C17.8881 20.9417 16.9528 20.1696 16.839 19.1102C16.8166 18.9018 16.7942 18.6899 16.7718 18.4744C16.7092 17.7261 16.6465 16.8686 16.5839 15.902C16.5526 14.9042 16.5369 13.9065 16.5369 12.9087C16.5369 9.5412 17.3356 6.82851 18.9329 4.7706C20.2683 3.0241 22.3151 1.62627 25.0733 0.577131C26.008 0.221606 27.0241 0.761569 27.3309 1.71334V1.71334C27.6805 2.79745 26.9499 3.90893 25.8987 4.34769C25.6314 4.45926 25.3766 4.58464 25.1342 4.72383C24.3512 5.19154 23.6935 5.73719 23.1611 6.3608C22.66 6.98441 22.2685 7.67038 21.9866 8.41871C21.9561 8.50973 21.9275 8.60075 21.9007 8.69177C21.5891 9.75146 22.5062 10.6637 23.6107 10.6637H25.7651C26.8697 10.6637 27.7651 11.5591 27.7651 12.6637V18.3865ZM11.2752 18.3865C11.2752 19.437 10.4625 20.3084 9.41455 20.3817L2.46116 20.8674C1.39819 20.9417 0.462881 20.1696 0.34905 19.1102C0.32666 18.9018 0.30427 18.6899 0.281879 18.4744C0.219239 17.7261 0.1566 16.8686 0.0939597 15.902C0.0313199 14.9042 0 13.9065 0 12.9087C0 9.5412 0.782998 6.82851 2.34899 4.7706C3.68908 3.01794 5.74561 1.61642 8.5186 0.56605C9.44342 0.215739 10.4505 0.736987 10.7749 1.67122V1.67122C11.1559 2.76834 10.423 3.91881 9.34967 4.36243C9.08874 4.47027 8.83795 4.59074 8.59732 4.72383C7.783 5.19154 7.10962 5.73719 6.57718 6.3608C6.04474 6.98441 5.63758 7.67038 5.3557 8.41871C5.32523 8.50973 5.29661 8.60075 5.26984 8.69177C4.95818 9.75146 5.8753 10.6637 6.97987 10.6637H9.27517C10.3797 10.6637 11.2752 11.5591 11.2752 12.6637V18.3865Z" fill="#3C3C3C"/>
</svg>
