<svg width="16" height="16" viewBox="0 0 16 16" fill="none" xmlns="http://www.w3.org/2000/svg">
<rect opacity="0.01" width="15.3333" height="16" fill="#F3F3F3"/>
<path fill-rule="evenodd" clip-rule="evenodd" d="M7.38737 8.73577L9.82202 6.19526C10.0715 5.93491 10.476 5.93491 10.7255 6.19526C10.975 6.45561 10.975 6.87772 10.7255 7.13807L7.84177 10.1472C7.5933 10.4065 7.19082 10.4077 6.9409 10.15L4.02315 7.14082C3.77219 6.882 3.76983 6.4599 4.01786 6.19803C4.2659 5.93616 4.67041 5.93369 4.92137 6.19251L7.38737 8.73577Z" fill="#979797"/>
<mask id="mask0" mask-type="alpha" maskUnits="userSpaceOnUse" x="3" y="6" width="8" height="5">
<path fill-rule="evenodd" clip-rule="evenodd" d="M7.38737 8.73577L9.82202 6.19526C10.0715 5.93491 10.476 5.93491 10.7255 6.19526C10.975 6.45561 10.975 6.87772 10.7255 7.13807L7.84177 10.1472C7.5933 10.4065 7.19082 10.4077 6.9409 10.15L4.02315 7.14082C3.77219 6.882 3.76983 6.4599 4.01786 6.19803C4.2659 5.93616 4.67041 5.93369 4.92137 6.19251L7.38737 8.73577Z" fill="white"/>
</mask>
<g mask="url(#mask0)">
</g>
</svg>
