<svg width="24" height="24" viewBox="0 0 24 24" fill="none" xmlns="http://www.w3.org/2000/svg">
<path fill-rule="evenodd" clip-rule="evenodd" d="M12.0002 1C7.17019 1 3.23828 4.9319 3.23828 9.7619C3.23828 12.8833 4.9359 15.7857 7.61923 17.341V17.4286V20.7143H16.3811V17.4286V17.341C19.0645 15.7857 20.7621 12.8833 20.7621 9.7619C20.7621 4.9319 16.8302 1 12.0002 1ZM14.1907 18.5238H9.80971V17.4286H14.1907V18.5238ZM15.6145 15.2381H8.3859C6.56781 14.0333 5.42876 11.9743 5.42876 9.7619C5.42876 6.13667 8.37495 3.19048 12.0002 3.19048C15.6254 3.19048 18.5716 6.13667 18.5716 9.7619C18.5716 11.9743 17.4326 14.0333 15.6145 15.2381ZM7.61923 21.8095H16.3811V24H7.61923V21.8095Z" fill="#555"/>
</svg>
