<svg width="16" height="16" viewBox="0 0 16 16" fill="none" xmlns="http://www.w3.org/2000/svg">
<path d="M13.7458 14.6162C11.4938 13.6865 10.0667 12.915 9.38445 12.2581C9.26796 12.1573 9.17312 12.0338 9.10565 11.8953C9.03818 11.7568 8.99947 11.606 8.99187 11.4521C9.01102 11.238 9.07444 11.0301 9.1781 10.8417C9.28176 10.6533 9.42341 10.4885 9.59408 10.3577C10.1644 9.76854 11.0257 8.87726 11.0257 6.44399C11.0257 3.09569 9.40919 2.66633 8.00033 2.66633C6.59148 2.66633 4.97461 3.09566 4.97461 6.44399C4.97461 8.87791 5.83627 9.76854 6.40658 10.3577C6.57723 10.4886 6.71889 10.6534 6.82261 10.8418C6.92632 11.0301 6.98983 11.238 7.00912 11.4521C7.00156 11.6059 6.96291 11.7566 6.89549 11.895C6.82807 12.0334 6.73329 12.1567 6.61687 12.2575C5.93295 12.9157 4.5062 13.6865 2.25456 14.6162L1.74609 13.3831C3.10341 12.9013 4.38885 12.237 5.56705 11.4085C5.52832 11.3675 5.48665 11.3245 5.44857 11.2848C4.81673 10.6325 3.64127 9.41699 3.64127 6.44401C3.64127 2.21972 6.01172 1.33301 8.00033 1.33301C9.98861 1.33301 12.359 2.21972 12.359 6.44401C12.359 9.41699 11.1839 10.6318 10.5524 11.2848C10.5146 11.3232 10.4743 11.3656 10.4358 11.4059C11.6132 12.2353 12.898 12.9005 14.2549 13.3831L13.7458 14.6162Z" fill="#555"/>
</svg>
