<svg width="413" height="103" viewBox="0 0 413 103" fill="none" xmlns="http://www.w3.org/2000/svg">
<g filter="url(#filter0_d)">
<path d="M24.2288 78.6259C19.5347 78.6259 15.7533 77.2437 12.8847 74.4794C10.0682 71.6629 8.66 67.9076 8.66 63.2135V37.8653C8.66 33.2233 10.0682 29.5202 12.8847 26.7559C15.7533 23.9916 19.5347 22.6094 24.2288 22.6094C28.9751 22.6094 32.7565 23.9916 35.5729 26.7559C38.4416 29.5202 39.8759 33.2233 39.8759 37.8653V38.7259C39.8759 38.9867 39.7716 39.2214 39.5629 39.43C39.4065 39.5865 39.1979 39.6647 38.9371 39.6647L29.7835 40.0559C29.1577 40.0559 28.8447 39.769 28.8447 39.1953V37.1612C28.8447 35.6486 28.4275 34.4229 27.5929 33.4841C26.7584 32.5453 25.6371 32.0759 24.2288 32.0759C22.8727 32.0759 21.7775 32.5453 20.9429 33.4841C20.1084 34.4229 19.6912 35.6486 19.6912 37.1612V64.1524C19.6912 65.6649 20.1084 66.8906 20.9429 67.8294C21.7775 68.7161 22.8727 69.1594 24.2288 69.1594C25.6371 69.1594 26.7584 68.7161 27.5929 67.8294C28.4275 66.8906 28.8447 65.6649 28.8447 64.1524V62.04C28.8447 61.7792 28.9229 61.5706 29.0794 61.4141C29.288 61.2055 29.5228 61.1012 29.7835 61.1012L38.9371 61.4923C39.1979 61.4923 39.4065 61.5967 39.5629 61.8053C39.7716 61.9618 39.8759 62.1704 39.8759 62.4312V63.2135C39.8759 67.9076 38.4416 71.6629 35.5729 74.4794C32.7043 77.2437 28.9229 78.6259 24.2288 78.6259ZM59.1988 78.6259C54.5568 78.6259 50.9058 77.4524 48.2458 75.1053C45.638 72.7582 44.3341 69.5506 44.3341 65.4824V50.3047C44.3341 46.3408 45.6641 43.1592 48.3241 40.76C50.9841 38.3608 54.609 37.1612 59.1988 37.1612C63.8407 37.1612 67.4917 38.3608 70.1517 40.76C72.8117 43.1592 74.1417 46.3408 74.1417 50.3047V65.4824C74.1417 69.5506 72.8117 72.7582 70.1517 75.1053C67.5439 77.4524 63.8929 78.6259 59.1988 78.6259ZM59.1988 69.0812C60.3462 69.0812 61.2851 68.6639 62.0153 67.8294C62.7455 66.9949 63.1106 65.9257 63.1106 64.6218V51.0871C63.1106 49.7831 62.7455 48.7139 62.0153 47.8794C61.2851 47.0449 60.3462 46.6276 59.1988 46.6276C58.0513 46.6276 57.1125 47.0449 56.3823 47.8794C55.7043 48.7139 55.3653 49.7831 55.3653 51.0871V64.6218C55.3653 65.9257 55.7043 66.9949 56.3823 67.8294C57.1125 68.6639 58.0513 69.0812 59.1988 69.0812ZM98.1899 37.1612C101.737 37.1612 104.397 38.3347 106.17 40.6818C107.943 43.0288 108.83 46.3147 108.83 50.5394V77.0612C108.83 77.322 108.726 77.5567 108.517 77.7653C108.361 77.9218 108.152 78 107.891 78H98.7376C98.4768 78 98.2421 77.9218 98.0334 77.7653C97.877 77.5567 97.7987 77.322 97.7987 77.0612V51.4C97.7987 49.8874 97.4858 48.7139 96.8599 47.8794C96.2862 47.0449 95.4256 46.6276 94.2782 46.6276C93.0785 46.6276 92.1397 47.071 91.4617 47.9576C90.8358 48.7922 90.5229 49.9918 90.5229 51.5565V77.0612C90.5229 77.322 90.4185 77.5567 90.2099 77.7653C90.0534 77.9218 89.8448 78 89.584 78H80.4305C80.1697 78 79.935 77.9218 79.7264 77.7653C79.5699 77.5567 79.4917 77.322 79.4917 77.0612V38.7259C79.4917 38.4651 79.5699 38.2565 79.7264 38.1C79.935 37.8914 80.1697 37.7871 80.4305 37.7871H89.584C89.8448 37.7871 90.0534 37.8914 90.2099 38.1C90.4185 38.2565 90.5229 38.4651 90.5229 38.7259V40.2123C90.5229 40.3688 90.575 40.4471 90.6793 40.4471C90.8358 40.4471 91.0183 40.3427 91.227 40.1341C92.896 38.1521 95.217 37.1612 98.1899 37.1612ZM132.791 44.5935C132.791 44.8543 132.686 45.089 132.478 45.2976C132.321 45.4541 132.113 45.5323 131.852 45.5323H127.471C127.21 45.5323 127.08 45.6627 127.08 45.9235V64.5435C127.08 66.0561 127.366 67.0992 127.94 67.6729C128.514 68.2467 129.374 68.5074 130.522 68.4553H131.07C131.33 68.4553 131.539 68.5596 131.695 68.7682C131.904 68.9247 132.008 69.1333 132.008 69.3941V77.0612C132.008 77.322 131.904 77.5567 131.695 77.7653C131.539 77.9218 131.33 78 131.07 78H127.94C124.133 78 121.264 77.3741 119.334 76.1224C117.404 74.8184 116.44 72.3671 116.44 68.7682V45.9235C116.44 45.6627 116.309 45.5323 116.048 45.5323H113.467C113.206 45.5323 112.971 45.4541 112.762 45.2976C112.606 45.089 112.528 44.8543 112.528 44.5935V38.7259C112.528 38.4651 112.606 38.2565 112.762 38.1C112.971 37.8914 113.206 37.7871 113.467 37.7871H116.048C116.309 37.7871 116.44 37.6567 116.44 37.3959V28.7118C116.44 28.451 116.518 28.2423 116.674 28.0859C116.883 27.8772 117.118 27.7729 117.378 27.7729H126.141C126.401 27.7729 126.61 27.8772 126.767 28.0859C126.975 28.2423 127.08 28.451 127.08 28.7118V37.3959C127.08 37.6567 127.21 37.7871 127.471 37.7871H131.852C132.113 37.7871 132.321 37.8914 132.478 38.1C132.686 38.2565 132.791 38.4651 132.791 38.7259V44.5935ZM166.277 60.3971C166.277 60.6578 166.172 60.8925 165.964 61.1012C165.807 61.2576 165.599 61.3359 165.338 61.3359H148.126C147.865 61.3359 147.735 61.4663 147.735 61.7271V64.6218C147.735 65.9257 148.074 67.021 148.752 67.9076C149.482 68.7422 150.395 69.1594 151.49 69.1594C152.481 69.1594 153.29 68.8465 153.915 68.2206C154.541 67.5425 154.959 66.708 155.167 65.7171C155.324 65.1955 155.663 64.9347 156.184 64.9347L165.181 65.4041C165.442 65.4041 165.651 65.5084 165.807 65.7171C166.016 65.8735 166.094 66.1082 166.042 66.4212C165.677 70.4373 164.269 73.4884 161.817 75.5747C159.418 77.6088 155.976 78.6259 151.49 78.6259C146.848 78.6259 143.223 77.4784 140.615 75.1835C138.008 72.8365 136.704 69.6027 136.704 65.4824V50.3047C136.704 46.3408 138.008 43.1592 140.615 40.76C143.275 38.3608 146.9 37.1612 151.49 37.1612C156.08 37.1612 159.679 38.3608 162.287 40.76C164.947 43.1592 166.277 46.3408 166.277 50.3047V60.3971ZM151.49 46.6276C150.395 46.6276 149.482 47.0449 148.752 47.8794C148.074 48.7139 147.735 49.7831 147.735 51.0871V54.1382C147.735 54.399 147.865 54.5294 148.126 54.5294H154.854C155.115 54.5294 155.245 54.399 155.245 54.1382V51.0871C155.245 49.7831 154.88 48.7139 154.15 47.8794C153.472 47.0449 152.585 46.6276 151.49 46.6276ZM190.025 37.1612C193.571 37.1612 196.231 38.3347 198.005 40.6818C199.778 43.0288 200.665 46.3147 200.665 50.5394V77.0612C200.665 77.322 200.56 77.5567 200.352 77.7653C200.195 77.9218 199.987 78 199.726 78H190.572C190.312 78 190.077 77.9218 189.868 77.7653C189.712 77.5567 189.634 77.322 189.634 77.0612V51.4C189.634 49.8874 189.321 48.7139 188.695 47.8794C188.121 47.0449 187.26 46.6276 186.113 46.6276C184.913 46.6276 183.975 47.071 183.296 47.9576C182.671 48.7922 182.358 49.9918 182.358 51.5565V77.0612C182.358 77.322 182.253 77.5567 182.045 77.7653C181.888 77.9218 181.68 78 181.419 78H172.265C172.005 78 171.77 77.9218 171.561 77.7653C171.405 77.5567 171.326 77.322 171.326 77.0612V38.7259C171.326 38.4651 171.405 38.2565 171.561 38.1C171.77 37.8914 172.005 37.7871 172.265 37.7871H181.419C181.68 37.7871 181.888 37.8914 182.045 38.1C182.253 38.2565 182.358 38.4651 182.358 38.7259V40.2123C182.358 40.3688 182.41 40.4471 182.514 40.4471C182.671 40.4471 182.853 40.3427 183.062 40.1341C184.731 38.1521 187.052 37.1612 190.025 37.1612ZM224.626 44.5935C224.626 44.8543 224.521 45.089 224.313 45.2976C224.156 45.4541 223.947 45.5323 223.687 45.5323H219.306C219.045 45.5323 218.914 45.6627 218.914 45.9235V64.5435C218.914 66.0561 219.201 67.0992 219.775 67.6729C220.349 68.2467 221.209 68.5074 222.357 68.4553H222.904C223.165 68.4553 223.374 68.5596 223.53 68.7682C223.739 68.9247 223.843 69.1333 223.843 69.3941V77.0612C223.843 77.322 223.739 77.5567 223.53 77.7653C223.374 77.9218 223.165 78 222.904 78H219.775C215.967 78 213.099 77.3741 211.169 76.1224C209.239 74.8184 208.274 72.3671 208.274 68.7682V45.9235C208.274 45.6627 208.144 45.5323 207.883 45.5323H205.301C205.041 45.5323 204.806 45.4541 204.597 45.2976C204.441 45.089 204.363 44.8543 204.363 44.5935V38.7259C204.363 38.4651 204.441 38.2565 204.597 38.1C204.806 37.8914 205.041 37.7871 205.301 37.7871H207.883C208.144 37.7871 208.274 37.6567 208.274 37.3959V28.7118C208.274 28.451 208.353 28.2423 208.509 28.0859C208.718 27.8772 208.952 27.7729 209.213 27.7729H217.976C218.236 27.7729 218.445 27.8772 218.601 28.0859C218.81 28.2423 218.914 28.451 218.914 28.7118V37.3959C218.914 37.6567 219.045 37.7871 219.306 37.7871H223.687C223.947 37.7871 224.156 37.8914 224.313 38.1C224.521 38.2565 224.626 38.4651 224.626 38.7259V44.5935ZM246.157 78C245.896 78 245.661 77.9218 245.453 77.7653C245.296 77.5567 245.218 77.322 245.218 77.0612V24.1741C245.218 23.9133 245.296 23.7047 245.453 23.5482C245.661 23.3396 245.896 23.2353 246.157 23.2353H260.317C265.064 23.2353 268.871 24.6174 271.74 27.3818C274.608 30.1461 276.043 33.8231 276.043 38.4129V62.8224C276.043 67.4122 274.608 71.0892 271.74 73.8535C268.871 76.6178 265.064 78 260.317 78H246.157ZM256.249 68.1424C256.249 68.4031 256.379 68.5335 256.64 68.5335L260.161 68.4553C261.569 68.4031 262.717 67.8033 263.603 66.6559C264.49 65.5084 264.959 63.9959 265.011 62.1182V39.1171C265.011 37.1351 264.568 35.5704 263.681 34.4229C262.795 33.2755 261.595 32.7018 260.083 32.7018H256.64C256.379 32.7018 256.249 32.8321 256.249 33.0929V68.1424ZM310.981 60.3971C310.981 60.6578 310.877 60.8925 310.668 61.1012C310.512 61.2576 310.303 61.3359 310.043 61.3359H292.831C292.57 61.3359 292.44 61.4663 292.44 61.7271V64.6218C292.44 65.9257 292.779 67.021 293.457 67.9076C294.187 68.7422 295.1 69.1594 296.195 69.1594C297.186 69.1594 297.994 68.8465 298.62 68.2206C299.246 67.5425 299.663 66.708 299.872 65.7171C300.028 65.1955 300.367 64.9347 300.889 64.9347L309.886 65.4041C310.147 65.4041 310.356 65.5084 310.512 65.7171C310.721 65.8735 310.799 66.1082 310.747 66.4212C310.382 70.4373 308.973 73.4884 306.522 75.5747C304.123 77.6088 300.68 78.6259 296.195 78.6259C291.553 78.6259 287.928 77.4784 285.32 75.1835C282.712 72.8365 281.408 69.6027 281.408 65.4824V50.3047C281.408 46.3408 282.712 43.1592 285.32 40.76C287.98 38.3608 291.605 37.1612 296.195 37.1612C300.785 37.1612 304.384 38.3608 306.991 40.76C309.651 43.1592 310.981 46.3408 310.981 50.3047V60.3971ZM296.195 46.6276C295.1 46.6276 294.187 47.0449 293.457 47.8794C292.779 48.7139 292.44 49.7831 292.44 51.0871V54.1382C292.44 54.399 292.57 54.5294 292.831 54.5294H299.559C299.82 54.5294 299.95 54.399 299.95 54.1382V51.0871C299.95 49.7831 299.585 48.7139 298.855 47.8794C298.177 47.0449 297.29 46.6276 296.195 46.6276ZM334.808 37.1612C338.407 37.1612 341.119 38.3347 342.944 40.6818C344.822 42.9767 345.761 46.1582 345.761 50.2265V65.4824C345.761 69.7071 344.822 72.9669 342.944 75.2618C341.067 77.5045 338.354 78.6259 334.808 78.6259C333.66 78.6259 332.461 78.4173 331.209 78C329.957 77.5306 328.81 76.7222 327.767 75.5747C327.662 75.4182 327.558 75.3661 327.454 75.4182C327.349 75.4704 327.297 75.5747 327.297 75.7312V91.6129C327.297 91.8737 327.193 92.0824 326.984 92.2388C326.828 92.4475 326.619 92.5518 326.358 92.5518H317.205C316.944 92.5518 316.709 92.4475 316.501 92.2388C316.344 92.0824 316.266 91.8737 316.266 91.6129V38.7259C316.266 38.4651 316.344 38.2565 316.501 38.1C316.709 37.8914 316.944 37.7871 317.205 37.7871H326.358C326.619 37.7871 326.828 37.8914 326.984 38.1C327.193 38.2565 327.297 38.4651 327.297 38.7259V39.9776C327.297 40.082 327.349 40.1341 327.454 40.1341C327.662 40.1341 327.871 40.0037 328.079 39.7429C329.853 38.0218 332.096 37.1612 334.808 37.1612ZM334.729 51.0871C334.729 49.731 334.39 48.6357 333.712 47.8012C333.034 46.9667 332.122 46.5494 330.974 46.5494C329.879 46.5494 328.992 46.9667 328.314 47.8012C327.636 48.6357 327.297 49.731 327.297 51.0871V64.6218C327.297 65.9778 327.636 67.0731 328.314 67.9076C328.992 68.7422 329.879 69.1594 330.974 69.1594C332.122 69.1594 333.034 68.7422 333.712 67.9076C334.39 67.0731 334.729 65.9778 334.729 64.6218V51.0871ZM365.417 78.6259C360.775 78.6259 357.124 77.4524 354.464 75.1053C351.856 72.7582 350.552 69.5506 350.552 65.4824V50.3047C350.552 46.3408 351.882 43.1592 354.542 40.76C357.202 38.3608 360.827 37.1612 365.417 37.1612C370.059 37.1612 373.71 38.3608 376.37 40.76C379.03 43.1592 380.36 46.3408 380.36 50.3047V65.4824C380.36 69.5506 379.03 72.7582 376.37 75.1053C373.762 77.4524 370.111 78.6259 365.417 78.6259ZM365.417 69.0812C366.564 69.0812 367.503 68.6639 368.233 67.8294C368.963 66.9949 369.328 65.9257 369.328 64.6218V51.0871C369.328 49.7831 368.963 48.7139 368.233 47.8794C367.503 47.0449 366.564 46.6276 365.417 46.6276C364.269 46.6276 363.33 47.0449 362.6 47.8794C361.922 48.7139 361.583 49.7831 361.583 51.0871V64.6218C361.583 65.9257 361.922 66.9949 362.6 67.8294C363.33 68.6639 364.269 69.0812 365.417 69.0812ZM404.017 44.5935C404.017 44.8543 403.912 45.089 403.704 45.2976C403.547 45.4541 403.339 45.5323 403.078 45.5323H398.697C398.436 45.5323 398.305 45.6627 398.305 45.9235V64.5435C398.305 66.0561 398.592 67.0992 399.166 67.6729C399.74 68.2467 400.6 68.5074 401.748 68.4553H402.295C402.556 68.4553 402.765 68.5596 402.921 68.7682C403.13 68.9247 403.234 69.1333 403.234 69.3941V77.0612C403.234 77.322 403.13 77.5567 402.921 77.7653C402.765 77.9218 402.556 78 402.295 78H399.166C395.359 78 392.49 77.3741 390.56 76.1224C388.63 74.8184 387.665 72.3671 387.665 68.7682V45.9235C387.665 45.6627 387.535 45.5323 387.274 45.5323H384.692C384.432 45.5323 384.197 45.4541 383.988 45.2976C383.832 45.089 383.754 44.8543 383.754 44.5935V38.7259C383.754 38.4651 383.832 38.2565 383.988 38.1C384.197 37.8914 384.432 37.7871 384.692 37.7871H387.274C387.535 37.7871 387.665 37.6567 387.665 37.3959V28.7118C387.665 28.451 387.744 28.2423 387.9 28.0859C388.109 27.8772 388.343 27.7729 388.604 27.7729H397.367C397.627 27.7729 397.836 27.8772 397.992 28.0859C398.201 28.2423 398.305 28.451 398.305 28.7118V37.3959C398.305 37.6567 398.436 37.7871 398.697 37.7871H403.078C403.339 37.7871 403.547 37.8914 403.704 38.1C403.912 38.2565 404.017 38.4651 404.017 38.7259V44.5935Z" fill="white"/>
</g>
<g filter="url(#filter1_d)">
<path d="M53.368 11.2C53.448 11.2 53.512 11.232 53.56 11.296C53.624 11.344 53.656 11.408 53.656 11.488V13.816C53.656 13.896 53.624 13.968 53.56 14.032C53.512 14.08 53.448 14.104 53.368 14.104H50.368C50.288 14.104 50.248 14.144 50.248 14.224V27.712C50.248 27.792 50.216 27.864 50.152 27.928C50.104 27.976 50.04 28 49.96 28H47.152C47.072 28 47 27.976 46.936 27.928C46.888 27.864 46.864 27.792 46.864 27.712V14.224C46.864 14.144 46.824 14.104 46.744 14.104H43.864C43.784 14.104 43.712 14.08 43.648 14.032C43.6 13.968 43.576 13.896 43.576 13.816V11.488C43.576 11.408 43.6 11.344 43.648 11.296C43.712 11.232 43.784 11.2 43.864 11.2H53.368ZM61.3066 11.488C61.3066 11.408 61.3306 11.344 61.3786 11.296C61.4426 11.232 61.5146 11.2 61.5946 11.2H64.4026C64.4826 11.2 64.5466 11.232 64.5946 11.296C64.6586 11.344 64.6906 11.408 64.6906 11.488V27.712C64.6906 27.792 64.6586 27.864 64.5946 27.928C64.5466 27.976 64.4826 28 64.4026 28H61.5946C61.5146 28 61.4426 27.976 61.3786 27.928C61.3306 27.864 61.3066 27.792 61.3066 27.712V21.16C61.3066 21.08 61.2666 21.04 61.1866 21.04H58.7866C58.7066 21.04 58.6666 21.08 58.6666 21.16V27.712C58.6666 27.792 58.6346 27.864 58.5706 27.928C58.5226 27.976 58.4586 28 58.3786 28H55.5706C55.4906 28 55.4186 27.976 55.3546 27.928C55.3066 27.864 55.2826 27.792 55.2826 27.712V11.488C55.2826 11.408 55.3066 11.344 55.3546 11.296C55.4186 11.232 55.4906 11.2 55.5706 11.2H58.3786C58.4586 11.2 58.5226 11.232 58.5706 11.296C58.6346 11.344 58.6666 11.408 58.6666 11.488V18.016C58.6666 18.096 58.7066 18.136 58.7866 18.136H61.1866C61.2666 18.136 61.3066 18.096 61.3066 18.016V11.488ZM75.5515 13.816C75.5515 13.896 75.5195 13.968 75.4555 14.032C75.4075 14.08 75.3435 14.104 75.2635 14.104H70.2475C70.1675 14.104 70.1275 14.144 70.1275 14.224V18.016C70.1275 18.096 70.1675 18.136 70.2475 18.136H73.1275C73.2075 18.136 73.2715 18.168 73.3195 18.232C73.3835 18.28 73.4155 18.344 73.4155 18.424V20.752C73.4155 20.832 73.3835 20.904 73.3195 20.968C73.2715 21.016 73.2075 21.04 73.1275 21.04H70.2475C70.1675 21.04 70.1275 21.08 70.1275 21.16V24.976C70.1275 25.056 70.1675 25.096 70.2475 25.096H75.2635C75.3435 25.096 75.4075 25.128 75.4555 25.192C75.5195 25.24 75.5515 25.304 75.5515 25.384V27.712C75.5515 27.792 75.5195 27.864 75.4555 27.928C75.4075 27.976 75.3435 28 75.2635 28H67.0315C66.9515 28 66.8795 27.976 66.8155 27.928C66.7675 27.864 66.7435 27.792 66.7435 27.712V11.488C66.7435 11.408 66.7675 11.344 66.8155 11.296C66.8795 11.232 66.9515 11.2 67.0315 11.2H75.2635C75.3435 11.2 75.4075 11.232 75.4555 11.296C75.5195 11.344 75.5515 11.408 75.5515 11.488V13.816Z" fill="white"/>
</g>
<defs>
<filter id="filter0_d" x="0.660156" y="16.6094" width="411.357" height="85.9424" filterUnits="userSpaceOnUse" color-interpolation-filters="sRGB">
<feFlood flood-opacity="0" result="BackgroundImageFix"/>
<feColorMatrix in="SourceAlpha" type="matrix" values="0 0 0 0 0 0 0 0 0 0 0 0 0 0 0 0 0 0 127 0"/>
<feOffset dy="2"/>
<feGaussianBlur stdDeviation="4"/>
<feColorMatrix type="matrix" values="0 0 0 0 0 0 0 0 0 0 0 0 0 0 0 0 0 0 0.25 0"/>
<feBlend mode="normal" in2="BackgroundImageFix" result="effect1_dropShadow"/>
<feBlend mode="normal" in="SourceGraphic" in2="effect1_dropShadow" result="shape"/>
</filter>
<filter id="filter1_d" x="35.5762" y="5.2002" width="47.9755" height="32.8" filterUnits="userSpaceOnUse" color-interpolation-filters="sRGB">
<feFlood flood-opacity="0" result="BackgroundImageFix"/>
<feColorMatrix in="SourceAlpha" type="matrix" values="0 0 0 0 0 0 0 0 0 0 0 0 0 0 0 0 0 0 127 0"/>
<feOffset dy="2"/>
<feGaussianBlur stdDeviation="4"/>
<feColorMatrix type="matrix" values="0 0 0 0 0 0 0 0 0 0 0 0 0 0 0 0 0 0 0.25 0"/>
<feBlend mode="normal" in2="BackgroundImageFix" result="effect1_dropShadow"/>
<feBlend mode="normal" in="SourceGraphic" in2="effect1_dropShadow" result="shape"/>
</filter>
</defs>
</svg>
